<?xml version="1.0" encoding="UTF-8" standalone="no"?>
<svg
   xmlns:dc="http://purl.org/dc/elements/1.1/"
   xmlns:cc="http://creativecommons.org/ns#"
   xmlns:rdf="http://www.w3.org/1999/02/22-rdf-syntax-ns#"
   xmlns:svg="http://www.w3.org/2000/svg"
   xmlns="http://www.w3.org/2000/svg"
   xmlns:sodipodi="http://sodipodi.sourceforge.net/DTD/sodipodi-0.dtd"
   xmlns:inkscape="http://www.inkscape.org/namespaces/inkscape"
   width="1024"
   height="1024"
   viewBox="0 0 270.93333 270.93334"
   version="1.1"
   id="svg8"
   sodipodi:docname="f5.svg"
   inkscape:version="1.0.2 (e86c870879, 2021-01-15)">
  <defs
     id="defs2">
    <marker
       style="overflow:visible"
       id="marker1374"
       refX="0.0"
       refY="0.0"
       orient="auto"
       inkscape:stockid="Arrow1Lstart"
       inkscape:isstock="true">
      <path
         transform="scale(0.8) translate(12.5,0)"
         style="fill-rule:evenodd;stroke:#000000;stroke-width:1pt;stroke-opacity:1;fill:#000000;fill-opacity:1"
         d="M 0.0,0.0 L 5.0,-5.0 L -12.5,0.0 L 5.0,5.0 L 0.0,0.0 z "
         id="path1372" />
    </marker>
    <marker
       style="overflow:visible"
       id="marker1364"
       refX="0.0"
       refY="0.0"
       orient="auto"
       inkscape:stockid="Arrow1Lstart"
       inkscape:isstock="true">
      <path
         transform="scale(0.8) translate(12.5,0)"
         style="fill-rule:evenodd;stroke:#000000;stroke-width:1pt;stroke-opacity:1;fill:#000000;fill-opacity:1"
         d="M 0.0,0.0 L 5.0,-5.0 L -12.5,0.0 L 5.0,5.0 L 0.0,0.0 z "
         id="path1362" />
    </marker>
    <marker
       style="overflow:visible"
       id="marker1342"
       refX="0.0"
       refY="0.0"
       orient="auto"
       inkscape:stockid="Arrow1Lstart"
       inkscape:isstock="true">
      <path
         transform="scale(0.8) translate(12.5,0)"
         style="fill-rule:evenodd;stroke:#000000;stroke-width:1pt;stroke-opacity:1;fill:#000000;fill-opacity:1"
         d="M 0.0,0.0 L 5.0,-5.0 L -12.5,0.0 L 5.0,5.0 L 0.0,0.0 z "
         id="path1340" />
    </marker>
    <g
       id="g3329">
      <symbol
         overflow="visible"
         id="symbol309">
        <path
           style="stroke:none;"
           d=""
           id="path7796" />
      </symbol>
      <symbol
         overflow="visible"
         id="symbol6044">
        <path
           style="stroke:none;"
           d="M 7.578125 -6.921875 C 7.578125 -6.953125 7.5625 -7.03125 7.46875 -7.03125 C 7.4375 -7.03125 7.421875 -7.015625 7.3125 -6.90625 L 6.625 -6.140625 C 6.53125 -6.28125 6.078125 -7.03125 4.96875 -7.03125 C 2.734375 -7.03125 0.5 -4.828125 0.5 -2.515625 C 0.5 -0.875 1.671875 0.21875 3.203125 0.21875 C 4.0625 0.21875 4.828125 -0.171875 5.359375 -0.640625 C 6.28125 -1.453125 6.453125 -2.359375 6.453125 -2.390625 C 6.453125 -2.5 6.34375 -2.5 6.328125 -2.5 C 6.265625 -2.5 6.21875 -2.46875 6.203125 -2.390625 C 6.109375 -2.109375 5.875 -1.390625 5.1875 -0.8125 C 4.5 -0.265625 3.875 -0.09375 3.359375 -0.09375 C 2.46875 -0.09375 1.40625 -0.609375 1.40625 -2.15625 C 1.40625 -2.734375 1.609375 -4.34375 2.609375 -5.515625 C 3.21875 -6.21875 4.15625 -6.71875 5.046875 -6.71875 C 6.0625 -6.71875 6.65625 -5.953125 6.65625 -4.796875 C 6.65625 -4.390625 6.625 -4.390625 6.625 -4.28125 C 6.625 -4.1875 6.734375 -4.1875 6.765625 -4.1875 C 6.890625 -4.1875 6.890625 -4.203125 6.953125 -4.390625 Z M 7.578125 -6.921875 "
           id="path5261" />
      </symbol>
      <symbol
         overflow="visible"
         id="symbol7883">
        <path
           style="stroke:none;"
           d="M 9.234375 -6.046875 C 9.328125 -6.40625 9.34375 -6.5 10.09375 -6.5 C 10.3125 -6.5 10.40625 -6.5 10.40625 -6.703125 C 10.40625 -6.8125 10.3125 -6.8125 10.140625 -6.8125 L 8.828125 -6.8125 C 8.5625 -6.8125 8.546875 -6.8125 8.4375 -6.625 L 4.796875 -0.9375 L 4.015625 -6.578125 C 3.984375 -6.8125 3.96875 -6.8125 3.703125 -6.8125 L 2.34375 -6.8125 C 2.15625 -6.8125 2.046875 -6.8125 2.046875 -6.625 C 2.046875 -6.5 2.140625 -6.5 2.328125 -6.5 C 2.46875 -6.5 2.640625 -6.484375 2.765625 -6.484375 C 2.921875 -6.453125 2.984375 -6.4375 2.984375 -6.3125 C 2.984375 -6.28125 2.96875 -6.25 2.9375 -6.125 L 1.671875 -1.0625 C 1.578125 -0.65625 1.40625 -0.34375 0.59375 -0.3125 C 0.546875 -0.3125 0.421875 -0.296875 0.421875 -0.125 C 0.421875 -0.03125 0.484375 0 0.5625 0 C 0.875 0 1.21875 -0.03125 1.5625 -0.03125 C 1.890625 -0.03125 2.25 0 2.578125 0 C 2.625 0 2.765625 0 2.765625 -0.203125 C 2.765625 -0.3125 2.65625 -0.3125 2.578125 -0.3125 C 2.015625 -0.3125 1.90625 -0.515625 1.90625 -0.75 C 1.90625 -0.8125 1.90625 -0.875 1.9375 -0.984375 L 3.296875 -6.40625 L 3.3125 -6.40625 L 4.171875 -0.234375 C 4.1875 -0.109375 4.203125 0 4.3125 0 C 4.421875 0 4.484375 -0.109375 4.53125 -0.171875 L 8.5625 -6.484375 L 8.578125 -6.484375 L 7.140625 -0.78125 C 7.046875 -0.390625 7.03125 -0.3125 6.234375 -0.3125 C 6.078125 -0.3125 5.96875 -0.3125 5.96875 -0.125 C 5.96875 0 6.078125 0 6.109375 0 C 6.390625 0 7.0625 -0.03125 7.34375 -0.03125 C 7.75 -0.03125 8.1875 0 8.59375 0 C 8.65625 0 8.78125 0 8.78125 -0.203125 C 8.78125 -0.3125 8.6875 -0.3125 8.5 -0.3125 C 8.140625 -0.3125 7.859375 -0.3125 7.859375 -0.484375 C 7.859375 -0.53125 7.859375 -0.546875 7.90625 -0.734375 Z M 9.234375 -6.046875 "
           id="path966" />
      </symbol>
    </g>
  </defs>
  <sodipodi:namedview
     id="base"
     pagecolor="#ffffff"
     bordercolor="#666666"
     borderopacity="1.0"
     inkscape:pageopacity="0.0"
     inkscape:pageshadow="2"
     inkscape:zoom="0.70710678"
     inkscape:cx="379.78728"
     inkscape:cy="558.82302"
     inkscape:document-units="px"
     inkscape:current-layer="layer1"
     inkscape:document-rotation="0"
     showgrid="true"
     units="px"
     inkscape:showpageshadow="false"
     borderlayer="true"
     inkscape:window-width="902"
     inkscape:window-height="1048"
     inkscape:window-x="1920"
     inkscape:window-y="18"
     inkscape:window-maximized="0"
     showguides="true"
     inkscape:guide-bbox="true">
    <inkscape:grid
       type="axonomgrid"
       id="grid1312"
       empspacing="8"
       gridanglex="32"
       gridanglez="32" />
    <sodipodi:guide
       position="101.62124,118.53334"
       orientation="1,0"
       id="guide1316" />
    <sodipodi:guide
       position="101.62124,118.53333"
       orientation="0,-1"
       id="guide1318" />
    <sodipodi:guide
       position="101.62124,118.53333"
       orientation="0.52991926,-0.8480481"
       id="guide1322" />
    <sodipodi:guide
       position="101.62124,84.666671"
       orientation="0,-1"
       id="guide52" />
    <sodipodi:guide
       position="165.52955,84.666677"
       orientation="1,0"
       id="guide54" />
    <sodipodi:guide
       position="138.46985,43.382013"
       orientation="0,-1"
       id="guide66" />
    <sodipodi:guide
       position="138.46985,43.382013"
       orientation="1,0"
       id="guide68" />
    <sodipodi:guide
       position="176.77887,67.324058"
       orientation="0,-1"
       id="guide70" />
    <sodipodi:guide
       position="176.77887,67.324059"
       orientation="1,0"
       id="guide72" />
  </sodipodi:namedview>
  <metadata
     id="metadata5">
    <rdf:RDF>
      <cc:Work
         rdf:about="">
        <dc:format>image/svg+xml</dc:format>
        <dc:type
           rdf:resource="http://purl.org/dc/dcmitype/StillImage" />
        <dc:title />
      </cc:Work>
    </rdf:RDF>
  </metadata>
  <g
     inkscape:label="Capa 1"
     inkscape:groupmode="layer"
     id="layer1">
    <path
       style="fill:none;stroke:#000000;stroke-width:0.264583;stroke-linecap:round;stroke-linejoin:round;stroke-miterlimit:10;stroke-dasharray:none;stroke-dashoffset:0;marker-start:url(#marker1374);paint-order:markers fill stroke"
       d="m 101.62124,59.266669 0,101.600001"
       id="path1314"
       sodipodi:nodetypes="cc" />
    <path
       style="fill:none;stroke:#000000;stroke-width:0.264583;stroke-linecap:round;stroke-linejoin:round;stroke-miterlimit:10;stroke-dasharray:none;stroke-dashoffset:0;marker-start:url(#marker1364);paint-order:markers fill stroke"
       d="m 189.31163,152.4 -94.465135,0"
       id="path1324"
       sodipodi:nodetypes="cc" />
    <path
       style="fill:none;stroke:#000000;stroke-width:0.264583;stroke-linecap:round;stroke-linejoin:round;stroke-miterlimit:10;stroke-dasharray:none;stroke-dashoffset:0;marker-start:url(#marker1342);paint-order:markers fill stroke"
       d="M 38.95481,191.55833 111.78337,146.05"
       id="path1326"
       sodipodi:nodetypes="cc" />
    <path
       style="fill:none;stroke:#000000;stroke-width:0.105833;stroke-linecap:round;stroke-linejoin:round;stroke-miterlimit:10;stroke-dasharray:none;paint-order:markers fill stroke"
       d="m 81.296993,165.1 33.873747,0"
       id="path86"
       sodipodi:nodetypes="cc" />
    <path
       style="fill:none;stroke:#000000;stroke-width:0.105833;stroke-linecap:round;stroke-linejoin:round;stroke-miterlimit:10;stroke-dasharray:none;paint-order:markers fill stroke"
       d="m 135.49499,152.4 -20.32425,12.7"
       id="path929" />
    <ellipse
       style="fill:#0000ff;stroke:none;stroke-width:0.105833;stroke-linecap:round;stroke-linejoin:round;stroke-miterlimit:10;stroke-dasharray:none;paint-order:markers fill stroke"
       id="path931"
       cx="115.17074"
       cy="165.09999"
       rx="0.85150093"
       ry="0.5262565" />
    <path
       style="fill:none;stroke:#000000;stroke-width:0.105833;stroke-linecap:round;stroke-linejoin:round;stroke-miterlimit:10;stroke-dasharray:none;paint-order:markers fill stroke"
       d="m 115.17075,152.4 8.46843,-5.29167"
       id="path933" />
    <path
       style="fill:none;stroke:#000000;stroke-width:0.105833;stroke-linecap:round;stroke-linejoin:round;stroke-miterlimit:10;stroke-dasharray:none;paint-order:markers fill stroke"
       d="m 123.63918,147.10833 h -13.5495"
       id="path935" />
    <path
       style="fill:none;stroke:#ff0000;stroke-width:0.26458332;stroke-linecap:round;stroke-linejoin:round;stroke-miterlimit:10;stroke-dasharray:1.05833328,0.52916664,0.26458332,0.52916664;paint-order:markers fill stroke;stroke-dashoffset:0"
       d="M 123.63918,155.575 V 128.05833"
       id="path943" />
    <path
       style="fill:none;stroke:#ff0000;stroke-width:0.264583;stroke-linecap:round;stroke-linejoin:round;stroke-miterlimit:10;stroke-dasharray:1.05833, 0.529167, 0.264583, 0.529167;stroke-dashoffset:0;paint-order:markers fill stroke"
       d="M 101.62124,156.63334 V 129.11667"
       id="path945" />
    <path
       style="fill:none;stroke:#000000;stroke-width:0.10583333;stroke-linecap:round;stroke-linejoin:round;stroke-miterlimit:10;stroke-dasharray:none;stroke-dashoffset:0;paint-order:markers fill stroke"
       d="M 115.17075,152.40001 94.846491,165.1"
       id="path947"
       sodipodi:nodetypes="cc" />
    <path
       style="fill:none;stroke:#000000;stroke-width:0.105833;stroke-linecap:round;stroke-linejoin:round;stroke-miterlimit:10;stroke-dasharray:none;stroke-dashoffset:0;paint-order:markers fill stroke"
       d="m 123.63918,147.10833 h 20.32425"
       id="path949" />
    <path
       style="fill:none;stroke:#000000;stroke-width:0.105833;stroke-linecap:round;stroke-linejoin:round;stroke-miterlimit:10;stroke-dasharray:none;stroke-dashoffset:0;paint-order:markers fill stroke"
       d="m 135.49499,152.4 8.46844,-5.29167"
       id="path951" />
  </g>
</svg>
