<?xml version="1.0" encoding="UTF-8" standalone="no"?>
<svg
   xmlns:dc="http://purl.org/dc/elements/1.1/"
   xmlns:cc="http://creativecommons.org/ns#"
   xmlns:rdf="http://www.w3.org/1999/02/22-rdf-syntax-ns#"
   xmlns:svg="http://www.w3.org/2000/svg"
   xmlns="http://www.w3.org/2000/svg"
   xmlns:xlink="http://www.w3.org/1999/xlink"
   xmlns:sodipodi="http://sodipodi.sourceforge.net/DTD/sodipodi-0.dtd"
   xmlns:inkscape="http://www.inkscape.org/namespaces/inkscape"
   width="135.91304mm"
   height="125.14791mm"
   viewBox="0 0 135.91304 125.14791"
   version="1.1"
   id="svg1278"
   sodipodi:docname="f7.svg"
   inkscape:version="1.0.2 (e86c870879, 2021-01-15)">
  <defs
     id="defs1272">
    <marker
       style="overflow:visible"
       id="marker4433"
       refX="0"
       refY="0"
       orient="auto"
       inkscape:stockid="Arrow1Lend"
       inkscape:isstock="true">
      <path
         transform="matrix(-0.8,0,0,-0.8,-10,0)"
         style="fill:#000000;fill-opacity:1;fill-rule:evenodd;stroke:#000000;stroke-width:1pt;stroke-opacity:1"
         d="M 0,0 5,-5 -12.5,0 5,5 Z"
         id="path4431" />
    </marker>
    <marker
       style="overflow:visible"
       id="marker4423"
       refX="0"
       refY="0"
       orient="auto"
       inkscape:stockid="Arrow1Lend"
       inkscape:isstock="true">
      <path
         transform="matrix(-0.8,0,0,-0.8,-10,0)"
         style="fill:#000000;fill-opacity:1;fill-rule:evenodd;stroke:#000000;stroke-width:1pt;stroke-opacity:1"
         d="M 0,0 5,-5 -12.5,0 5,5 Z"
         id="path4421" />
    </marker>
    <marker
       style="overflow:visible"
       id="marker4413"
       refX="0"
       refY="0"
       orient="auto"
       inkscape:stockid="Arrow1Lend"
       inkscape:isstock="true">
      <path
         transform="matrix(-0.8,0,0,-0.8,-10,0)"
         style="fill:#000000;fill-opacity:1;fill-rule:evenodd;stroke:#000000;stroke-width:1pt;stroke-opacity:1"
         d="M 0,0 5,-5 -12.5,0 5,5 Z"
         id="path4411" />
    </marker>
    <marker
       style="overflow:visible"
       id="marker3495-3"
       refX="0"
       refY="0"
       orient="auto"
       inkscape:stockid="Arrow1Lstart"
       inkscape:isstock="true"
       inkscape:collect="always">
      <path
         transform="matrix(0.8,0,0,0.8,10,0)"
         style="fill:#000000;fill-opacity:1;fill-rule:evenodd;stroke:#000000;stroke-width:1pt;stroke-opacity:1"
         d="M 0,0 5,-5 -12.5,0 5,5 Z"
         id="path3493-6" />
    </marker>
    <marker
       style="overflow:visible"
       id="marker3589-0"
       refX="0"
       refY="0"
       orient="auto"
       inkscape:stockid="Arrow1Lend"
       inkscape:isstock="true"
       inkscape:collect="always">
      <path
         transform="matrix(-0.8,0,0,-0.8,-10,0)"
         style="fill:#000000;fill-opacity:1;fill-rule:evenodd;stroke:#000000;stroke-width:1pt;stroke-opacity:1"
         d="M 0,0 5,-5 -12.5,0 5,5 Z"
         id="path3587-5" />
    </marker>
    <g
       id="g290">
      <symbol
         overflow="visible"
         id="symbol9213">
        <path
           style="stroke:none;"
           d=""
           id="path2275" />
      </symbol>
      <symbol
         overflow="visible"
         id="symbol2579">
        <path
           style="stroke:none;"
           d="M 3.734375 -6.03125 C 3.8125 -6.390625 3.84375 -6.5 4.78125 -6.5 C 5.078125 -6.5 5.15625 -6.5 5.15625 -6.6875 C 5.15625 -6.8125 5.046875 -6.8125 5 -6.8125 C 4.671875 -6.8125 3.859375 -6.78125 3.53125 -6.78125 C 3.234375 -6.78125 2.5 -6.8125 2.203125 -6.8125 C 2.140625 -6.8125 2.015625 -6.8125 2.015625 -6.609375 C 2.015625 -6.5 2.109375 -6.5 2.296875 -6.5 C 2.3125 -6.5 2.5 -6.5 2.671875 -6.484375 C 2.84375 -6.453125 2.9375 -6.453125 2.9375 -6.3125 C 2.9375 -6.28125 2.9375 -6.25 2.90625 -6.125 L 1.5625 -0.78125 C 1.46875 -0.390625 1.453125 -0.3125 0.65625 -0.3125 C 0.484375 -0.3125 0.390625 -0.3125 0.390625 -0.109375 C 0.390625 0 0.484375 0 0.65625 0 L 5.28125 0 C 5.515625 0 5.515625 0 5.578125 -0.171875 L 6.375 -2.328125 C 6.40625 -2.4375 6.40625 -2.453125 6.40625 -2.46875 C 6.40625 -2.5 6.375 -2.578125 6.296875 -2.578125 C 6.203125 -2.578125 6.1875 -2.515625 6.125 -2.359375 C 5.78125 -1.453125 5.34375 -0.3125 3.625 -0.3125 L 2.6875 -0.3125 C 2.546875 -0.3125 2.515625 -0.3125 2.46875 -0.3125 C 2.359375 -0.328125 2.328125 -0.34375 2.328125 -0.421875 C 2.328125 -0.453125 2.328125 -0.46875 2.375 -0.640625 Z M 3.734375 -6.03125 "
           id="path8798" />
      </symbol>
    </g>
  </defs>
  <sodipodi:namedview
     id="base"
     pagecolor="#ffffff"
     bordercolor="#666666"
     borderopacity="1.0"
     inkscape:pageopacity="0.0"
     inkscape:pageshadow="2"
     inkscape:zoom="0.98994949"
     inkscape:cx="313.99898"
     inkscape:cy="370.28276"
     inkscape:document-units="mm"
     inkscape:current-layer="layer1"
     inkscape:document-rotation="0"
     showgrid="false"
     fit-margin-top="0"
     fit-margin-left="0"
     fit-margin-right="0"
     fit-margin-bottom="0"
     inkscape:showpageshadow="false"
     borderlayer="true"
     inkscape:window-width="958"
     inkscape:window-height="1048"
     inkscape:window-x="1920"
     inkscape:window-y="18"
     inkscape:window-maximized="0" />
  <metadata
     id="metadata1275">
    <rdf:RDF>
      <cc:Work
         rdf:about="">
        <dc:format>image/svg+xml</dc:format>
        <dc:type
           rdf:resource="http://purl.org/dc/dcmitype/StillImage" />
        <dc:title></dc:title>
      </cc:Work>
    </rdf:RDF>
  </metadata>
  <g
     inkscape:label="Capa 1"
     inkscape:groupmode="layer"
     id="layer1"
     transform="translate(14.283902,-62.914137)">
    <path
       style="fill:none;fill-opacity:1;stroke:#ff0000;stroke-width:1.32292;stroke-linecap:round;stroke-linejoin:round;stroke-miterlimit:4;stroke-dasharray:5.29167, 2.64583, 1.32292, 2.64583;stroke-dashoffset:0;paint-order:markers fill stroke"
       d="M 53.6725,174.17147 V 163.58813"
       id="path19859"
       sodipodi:nodetypes="cc" />
    <g
       inkscape:label=""
       transform="matrix(3.764669,0,0,3.764669,-350.42161,-147.28725)"
       id="g4323">
      <g
         id="g4321">
        <g
           style="fill:#000000;fill-opacity:1"
           id="g4319">
          <g
             id="use4317"
             transform="matrix(0.26458333,0,0,0.26458333,91.925003,81.962997)">
            <path
               style="stroke:none"
               d="M 3.328125,-3.015625 C 3.390625,-3.265625 3.625,-4.1875 4.3125,-4.1875 c 0.046875,0 0.296875,0 0.5,0.125 C 4.53125,-4 4.34375,-3.765625 4.34375,-3.515625 c 0,0.15625 0.109375,0.34375 0.375,0.34375 0.21875,0 0.53125,-0.171875 0.53125,-0.578125 0,-0.515625 -0.578125,-0.65625 -0.921875,-0.65625 -0.578125,0 -0.921875,0.53125 -1.046875,0.75 -0.25,-0.65625 -0.78125,-0.75 -1.078125,-0.75 -1.03125,0 -1.609375,1.28125 -1.609375,1.53125 0,0.109375 0.109375,0.109375 0.125,0.109375 0.078125,0 0.109375,-0.03125 0.125,-0.109375 0.34375,-1.0625 1,-1.3125 1.34375,-1.3125 0.1875,0 0.53125,0.09375 0.53125,0.671875 0,0.3125 -0.171875,0.96875 -0.53125,2.375 -0.15625,0.609375 -0.515625,1.03125 -0.953125,1.03125 -0.0625,0 -0.28125,0 -0.5,-0.125 0.25,-0.0625 0.46875,-0.265625 0.46875,-0.546875 0,-0.265625 -0.21875,-0.34375 -0.359375,-0.34375 -0.3125,0 -0.546875,0.25 -0.546875,0.578125 0,0.453125 0.484375,0.65625 0.921875,0.65625 0.671875,0 1.03125,-0.703125 1.046875,-0.75 0.125,0.359375 0.484375,0.75 1.078125,0.75 1.03125,0 1.59375,-1.28125 1.59375,-1.53125 0,-0.109375 -0.078125,-0.109375 -0.109375,-0.109375 -0.09375,0 -0.109375,0.046875 -0.140625,0.109375 -0.328125,1.078125 -1,1.3125 -1.3125,1.3125 -0.390625,0 -0.546875,-0.3125 -0.546875,-0.65625 0,-0.21875 0.046875,-0.4375 0.15625,-0.875 z m 0,0"
               id="path1432" />
          </g>
        </g>
      </g>
    </g>
    <g
       inkscape:label=""
       transform="matrix(3.764669,0,0,3.764669,-241.07336,-147.31675)"
       id="g4331">
      <g
         id="g4329">
        <g
           style="fill:#000000;fill-opacity:1"
           id="g4327">
          <g
             id="use4325"
             transform="matrix(0.26458333,0,0,0.26458333,91.925003,81.962997)">
            <path
               style="stroke:none"
               d="m 4.84375,-3.796875 c 0.046875,-0.140625 0.046875,-0.15625 0.046875,-0.234375 0,-0.171875 -0.140625,-0.265625 -0.296875,-0.265625 -0.09375,0 -0.25,0.0625 -0.34375,0.203125 -0.015625,0.0625 -0.109375,0.359375 -0.140625,0.546875 -0.078125,0.25 -0.140625,0.53125 -0.203125,0.796875 l -0.453125,1.796875 c -0.03125,0.140625 -0.46875,0.84375 -1.125,0.84375 -0.5,0 -0.609375,-0.4375 -0.609375,-0.8125 C 1.71875,-1.375 1.890625,-2 2.21875,-2.875 2.375,-3.28125 2.421875,-3.390625 2.421875,-3.59375 c 0,-0.4375 -0.3125,-0.8125 -0.8125,-0.8125 -0.953125,0 -1.3125,1.453125 -1.3125,1.53125 0,0.109375 0.09375,0.109375 0.109375,0.109375 0.109375,0 0.109375,-0.03125 0.15625,-0.1875 0.28125,-0.9375 0.671875,-1.234375 1.015625,-1.234375 0.078125,0 0.25,0 0.25,0.3125 0,0.25 -0.109375,0.515625 -0.171875,0.703125 -0.40625,1.0625 -0.578125,1.625 -0.578125,2.09375 0,0.890625 0.625,1.1875 1.21875,1.1875 0.390625,0 0.71875,-0.171875 1,-0.453125 -0.125,0.515625 -0.25,1.015625 -0.640625,1.546875 -0.265625,0.328125 -0.640625,0.625 -1.09375,0.625 -0.140625,0 -0.59375,-0.03125 -0.765625,-0.421875 0.15625,0 0.296875,0 0.421875,-0.125 C 1.328125,1.203125 1.421875,1.0625 1.421875,0.875 1.421875,0.5625 1.15625,0.53125 1.0625,0.53125 0.828125,0.53125 0.5,0.6875 0.5,1.171875 c 0,0.5 0.4375,0.875 1.0625,0.875 1.015625,0 2.046875,-0.90625 2.328125,-2.03125 z m 0,0"
               id="path1428" />
          </g>
        </g>
      </g>
    </g>
    <g
       inkscape:label=""
       transform="matrix(3.764669,0,0,3.764669,-300.75535,-236.87113)"
       id="g4339">
      <g
         id="g4337">
        <g
           style="fill:#000000;fill-opacity:1"
           id="g4335">
          <g
             id="use4333"
             transform="matrix(0.26458333,0,0,0.26458333,91.925003,81.962997)">
            <path
               style="stroke:none"
               d="m 1.328125,-0.828125 c 0.53125,-0.578125 0.828125,-0.828125 1.1875,-1.140625 0,0 0.609375,-0.53125 0.96875,-0.890625 C 4.4375,-3.78125 4.65625,-4.265625 4.65625,-4.3125 c 0,-0.09375 -0.09375,-0.09375 -0.109375,-0.09375 -0.078125,0 -0.09375,0.015625 -0.15625,0.109375 -0.296875,0.484375 -0.5,0.640625 -0.734375,0.640625 -0.25,0 -0.359375,-0.15625 -0.515625,-0.328125 -0.1875,-0.21875 -0.359375,-0.421875 -0.6875,-0.421875 -0.75,0 -1.203125,0.921875 -1.203125,1.140625 0,0.046875 0.03125,0.109375 0.109375,0.109375 0.09375,0 0.109375,-0.046875 0.140625,-0.109375 0.1875,-0.46875 0.765625,-0.46875 0.84375,-0.46875 0.203125,0 0.390625,0.0625 0.625,0.140625 0.40625,0.15625 0.515625,0.15625 0.765625,0.15625 -0.359375,0.421875 -1.1875,1.140625 -1.375,1.296875 l -0.90625,0.84375 C 0.78125,-0.625 0.421875,-0.0625 0.421875,0.015625 c 0,0.09375 0.109375,0.09375 0.125,0.09375 0.078125,0 0.09375,-0.015625 0.15625,-0.125 0.234375,-0.359375 0.53125,-0.625 0.859375,-0.625 0.21875,0 0.328125,0.09375 0.578125,0.375 0.15625,0.21875 0.34375,0.375 0.625,0.375 1,0 1.578125,-1.265625 1.578125,-1.53125 0,-0.046875 -0.046875,-0.109375 -0.125,-0.109375 -0.09375,0 -0.109375,0.0625 -0.140625,0.140625 C 3.84375,-0.75 3.203125,-0.5625 2.875,-0.5625 c -0.1875,0 -0.375,-0.0625 -0.578125,-0.125 -0.34375,-0.125 -0.5,-0.171875 -0.703125,-0.171875 -0.015625,0 -0.171875,0 -0.265625,0.03125 z m 0,0"
               id="path1424" />
          </g>
        </g>
      </g>
    </g>
    <path
       style="fill:none;fill-opacity:1;stroke:#000000;stroke-width:0.264583;stroke-linecap:round;stroke-linejoin:round;stroke-miterlimit:4;stroke-dasharray:none;stroke-dashoffset:0;stroke-opacity:1;paint-order:markers fill stroke"
       id="path19732"
       sodipodi:type="arc"
       sodipodi:cx="53.672501"
       sodipodi:cy="108.5548"
       sodipodi:rx="7.3323483"
       sodipodi:ry="7.3323483"
       sodipodi:start="1.0471976"
       sodipodi:end="2.0943951"
       sodipodi:open="true"
       sodipodi:arc-type="arc"
       d="m 57.338674,114.9048 a 7.3323483,7.3323483 0 0 1 -7.332348,0" />
    <path
       style="fill:none;fill-opacity:1;stroke:#000000;stroke-width:0.264583;stroke-linecap:round;stroke-linejoin:round;stroke-miterlimit:4;stroke-dasharray:none;stroke-dashoffset:0;stroke-opacity:1;paint-order:markers fill stroke"
       id="path19736"
       sodipodi:type="arc"
       sodipodi:cx="51.228348"
       sodipodi:cy="112.78812"
       sodipodi:rx="2.4340637"
       sodipodi:ry="2.4340637"
       sodipodi:start="2.0943951"
       sodipodi:end="3.1415927"
       sodipodi:open="true"
       sodipodi:arc-type="arc"
       d="m 50.011316,114.89608 a 2.4340637,2.4340637 0 0 1 -1.217032,-2.10796" />
    <path
       style="fill:none;fill-opacity:1;stroke:#000000;stroke-width:0.264583;stroke-linecap:round;stroke-linejoin:round;stroke-miterlimit:4;stroke-dasharray:none;stroke-dashoffset:0;stroke-opacity:1;paint-order:markers fill stroke"
       id="path19738"
       sodipodi:type="arc"
       sodipodi:cx="56.116699"
       sodipodi:cy="112.78812"
       sodipodi:rx="2.4470563"
       sodipodi:ry="2.4470563"
       sodipodi:start="0"
       sodipodi:end="1.0471976"
       sodipodi:open="true"
       sodipodi:arc-type="arc"
       d="m 58.563756,112.78812 a 2.4470563,2.4470563 0 0 1 -1.223529,2.11921" />
    <path
       style="fill:none;fill-opacity:1;stroke:#000000;stroke-width:0.264583;stroke-linecap:round;stroke-linejoin:round;stroke-miterlimit:4;stroke-dasharray:none;stroke-dashoffset:0;stroke-opacity:1;paint-order:markers fill stroke"
       id="path19740"
       sodipodi:type="arc"
       sodipodi:cx="53.672501"
       sodipodi:cy="111.16278"
       sodipodi:rx="7.3323483"
       sodipodi:ry="7.3323483"
       sodipodi:start="1.0471976"
       sodipodi:end="2.0943951"
       sodipodi:open="true"
       sodipodi:arc-type="arc"
       d="m 57.338674,117.51278 a 7.3323483,7.3323483 0 0 1 -7.332348,0" />
    <path
       style="fill:none;fill-opacity:1;stroke:#000000;stroke-width:0.264583;stroke-linecap:round;stroke-linejoin:round;stroke-miterlimit:4;stroke-dasharray:none;stroke-dashoffset:0;stroke-opacity:1;paint-order:markers fill stroke"
       id="path19744"
       sodipodi:type="arc"
       sodipodi:cx="51.228348"
       sodipodi:cy="115.3961"
       sodipodi:rx="2.4340637"
       sodipodi:ry="2.4340637"
       sodipodi:start="2.0943951"
       sodipodi:end="3.1415927"
       sodipodi:open="true"
       sodipodi:arc-type="arc"
       d="M 50.011316,117.50406 A 2.4340637,2.4340637 0 0 1 48.794284,115.3961" />
    <path
       style="fill:none;fill-opacity:1;stroke:#000000;stroke-width:0.264583;stroke-linecap:round;stroke-linejoin:round;stroke-miterlimit:4;stroke-dasharray:none;stroke-dashoffset:0;stroke-opacity:1;paint-order:markers fill stroke"
       id="path19746"
       sodipodi:type="arc"
       sodipodi:cx="56.116699"
       sodipodi:cy="115.3961"
       sodipodi:rx="2.4470563"
       sodipodi:ry="2.4470563"
       sodipodi:start="0"
       sodipodi:end="1.0471976"
       sodipodi:open="true"
       sodipodi:arc-type="arc"
       d="m 58.563756,115.3961 a 2.4470563,2.4470563 0 0 1 -1.223529,2.11922" />
    <path
       style="fill:none;fill-opacity:1;stroke:#000000;stroke-width:0.264583;stroke-linecap:round;stroke-linejoin:round;stroke-miterlimit:4;stroke-dasharray:none;stroke-dashoffset:0;stroke-opacity:1;paint-order:markers fill stroke"
       id="path19748"
       sodipodi:type="arc"
       sodipodi:cx="53.672501"
       sodipodi:cy="156.17638"
       sodipodi:rx="7.3323483"
       sodipodi:ry="7.3323483"
       sodipodi:start="1.0471976"
       sodipodi:end="2.0943951"
       sodipodi:open="true"
       sodipodi:arc-type="arc"
       d="m 57.338674,162.52638 a 7.3323483,7.3323483 0 0 1 -7.332348,0" />
    <path
       style="fill:none;fill-opacity:1;stroke:#000000;stroke-width:0.264583;stroke-linecap:round;stroke-linejoin:round;stroke-miterlimit:4;stroke-dasharray:none;stroke-dashoffset:0;stroke-opacity:1;paint-order:markers fill stroke"
       id="path19752"
       sodipodi:type="arc"
       sodipodi:cx="51.228348"
       sodipodi:cy="160.4097"
       sodipodi:rx="2.4340637"
       sodipodi:ry="2.4340637"
       sodipodi:start="2.0943951"
       sodipodi:end="3.1415927"
       sodipodi:open="true"
       sodipodi:arc-type="arc"
       d="M 50.011316,162.51766 A 2.4340637,2.4340637 0 0 1 48.794284,160.4097" />
    <path
       style="fill:none;fill-opacity:1;stroke:#000000;stroke-width:0.264583;stroke-linecap:round;stroke-linejoin:round;stroke-miterlimit:4;stroke-dasharray:none;stroke-dashoffset:0;stroke-opacity:1;paint-order:markers fill stroke"
       id="path19754"
       sodipodi:type="arc"
       sodipodi:cx="56.116699"
       sodipodi:cy="160.4097"
       sodipodi:rx="2.4470563"
       sodipodi:ry="2.4470563"
       sodipodi:start="0"
       sodipodi:end="1.0471976"
       sodipodi:open="true"
       sodipodi:arc-type="arc"
       d="m 58.563756,160.4097 a 2.4470563,2.4470563 0 0 1 -1.223529,2.11921" />
    <path
       style="fill:none;fill-opacity:1;stroke:#000000;stroke-width:0.264583;stroke-linecap:round;stroke-linejoin:round;stroke-miterlimit:4;stroke-dasharray:none;stroke-dashoffset:0;stroke-opacity:1;paint-order:markers fill stroke"
       d="M 48.79482,90.563308 V 125.48813"
       id="path19768" />
    <path
       style="fill:none;fill-opacity:1;stroke:#000000;stroke-width:0.264583;stroke-linecap:round;stroke-linejoin:round;stroke-miterlimit:4;stroke-dasharray:none;stroke-dashoffset:0;stroke-opacity:1;paint-order:markers fill stroke"
       d="m 48.79482,125.48813 v 34.92482"
       id="path19768-5" />
    <path
       style="fill:none;fill-opacity:1;stroke:#000000;stroke-width:0.264583;stroke-linecap:round;stroke-linejoin:round;stroke-miterlimit:4;stroke-dasharray:none;stroke-dashoffset:0;stroke-opacity:1;paint-order:markers fill stroke"
       d="M 58.56334,160.41295 V 90.563308"
       id="path19792" />
    <g
       id="g19839"
       transform="translate(-149.80017,63.046475)">
      <path
         style="fill:none;fill-opacity:1;stroke:#000000;stroke-width:0.264583;stroke-linecap:round;stroke-linejoin:round;stroke-miterlimit:4;stroke-dasharray:none;stroke-dashoffset:0;stroke-opacity:1;paint-order:markers fill stroke"
         id="path19722"
         sodipodi:type="arc"
         sodipodi:cx="203.47267"
         sodipodi:cy="23.283329"
         sodipodi:rx="7.3323483"
         sodipodi:ry="7.3323483"
         sodipodi:start="1.0471976"
         sodipodi:end="2.0943951"
         sodipodi:open="true"
         sodipodi:arc-type="arc"
         d="m 207.13885,29.633329 a 7.3323483,7.3323483 0 0 1 -7.33235,0" />
      <path
         style="fill:none;fill-opacity:1;stroke:#000000;stroke-width:0.264583;stroke-linecap:round;stroke-linejoin:round;stroke-miterlimit:4;stroke-dasharray:none;stroke-dashoffset:0;stroke-opacity:1;paint-order:markers fill stroke"
         id="path19724"
         sodipodi:type="arc"
         sodipodi:cx="203.47267"
         sodipodi:cy="31.749998"
         sodipodi:rx="7.3323483"
         sodipodi:ry="7.3323483"
         sodipodi:start="4.1887902"
         sodipodi:end="5.2359878"
         sodipodi:arc-type="arc"
         sodipodi:open="true"
         d="m 199.8065,25.399998 a 7.3323483,7.3323483 0 0 1 7.33235,0" />
      <path
         style="fill:none;fill-opacity:1;stroke:#000000;stroke-width:0.264583;stroke-linecap:round;stroke-linejoin:round;stroke-miterlimit:4;stroke-dasharray:none;stroke-dashoffset:0;stroke-opacity:1;paint-order:markers fill stroke"
         id="path19728"
         sodipodi:type="arc"
         sodipodi:cx="201.02852"
         sodipodi:cy="27.516645"
         sodipodi:rx="2.4340637"
         sodipodi:ry="2.4340637"
         sodipodi:start="2.0943951"
         sodipodi:end="4.1887902"
         sodipodi:open="true"
         sodipodi:arc-type="arc"
         d="m 199.81149,29.624606 a 2.4340637,2.4340637 0 0 1 -1.21703,-2.107961 2.4340637,2.4340637 0 0 1 1.21703,-2.107961" />
      <path
         style="fill:none;fill-opacity:1;stroke:#000000;stroke-width:0.264583;stroke-linecap:round;stroke-linejoin:round;stroke-miterlimit:4;stroke-dasharray:none;stroke-dashoffset:0;stroke-opacity:1;paint-order:markers fill stroke"
         id="path19730"
         sodipodi:type="arc"
         sodipodi:cx="205.91687"
         sodipodi:cy="27.516645"
         sodipodi:rx="2.4470563"
         sodipodi:ry="2.4470563"
         sodipodi:start="5.2359878"
         sodipodi:end="1.0471976"
         sodipodi:open="true"
         sodipodi:arc-type="arc"
         d="m 207.1404,25.397433 a 2.4470563,2.4470563 0 0 1 1.22353,2.119212 2.4470563,2.4470563 0 0 1 -1.22353,2.119213" />
      <path
         style="fill:#aade87;fill-opacity:1;stroke:none;stroke-width:0.353553;stroke-linecap:round;stroke-linejoin:round;stroke-miterlimit:4;stroke-dasharray:none;stroke-dashoffset:0;stroke-opacity:1;paint-order:markers fill stroke"
         d="m 762.77038,114.24359 c -3.27096,-0.80438 -7.44442,-2.80114 -8.9027,-4.25941 -1.60407,-1.60407 -2.24348,-2.9866 -2.45375,-5.30549 -0.4899,-5.402789 4.07647,-9.446487 12.61899,-11.174595 6.51426,-1.3178 15.0396,0.379344 19.67815,3.917338 2.80293,2.137894 3.80197,7.027627 2.11353,10.344527 -1.10046,2.16184 -1.96475,2.92751 -5.03881,4.46387 -5.17375,2.58575 -12.4033,3.39386 -18.01541,2.01376 z"
         id="path19808"
         transform="matrix(0.26458334,0,0,0.26458334,-1.2470841e-6,-4.5765926e-5)" />
    </g>
    <path
       style="fill:#c6e9af;fill-opacity:1;stroke:none;stroke-width:0.0935442;stroke-linecap:round;stroke-linejoin:round;stroke-miterlimit:4;stroke-dasharray:none;stroke-dashoffset:0;stroke-opacity:1;paint-order:markers fill stroke"
       d="m 52.353691,115.58075 c -1.17611,-0.24921 -2.304603,-0.77011 -2.777138,-1.28189 -0.112567,-0.12191 -0.290547,-0.41109 -0.39551,-0.64261 -0.188463,-0.41572 -0.190865,-0.55338 -0.192894,-11.06189 l -0.0021,-10.640939 0.339701,0.376007 c 0.392417,0.434359 1.55094,1.037439 2.466629,1.284023 0.450453,0.121304 0.959575,0.163047 1.96443,0.161071 1.285024,-0.0026 1.402887,-0.01873 2.239995,-0.30793 0.996947,-0.344422 1.867297,-0.835507 2.14848,-1.21226 l 0.189272,-0.253601 0.0011,10.664059 c 7.93e-4,10.14702 -0.0074,10.68219 -0.170736,11.03823 -0.340595,0.74247 -0.96334,1.1789 -2.338213,1.63865 -1.056772,0.35337 -2.473322,0.45089 -3.472897,0.23908 z"
       id="path19810" />
    <path
       style="fill:#c6e9af;fill-opacity:1;stroke:none;stroke-width:0.0935442;stroke-linecap:round;stroke-linejoin:round;stroke-miterlimit:4;stroke-dasharray:none;stroke-dashoffset:0;stroke-opacity:1;paint-order:markers fill stroke"
       d="m 52.518646,163.23779 c -0.243695,-0.0444 -0.664644,-0.1535 -0.935443,-0.24245 -1.371597,-0.45052 -2.01826,-0.90687 -2.377157,-1.67757 l -0.218122,-0.46841 -7.94e-4,-22.01024 -7.94e-4,-22.01025 0.358458,0.37682 c 0.644726,0.67775 2.200875,1.26861 3.825351,1.45246 1.528741,0.17302 4.0616,-0.59438 4.85298,-1.47034 l 0.317645,-0.3516 -0.0021,22.05335 c -0.0019,21.15585 -0.009,22.06866 -0.172974,22.4296 -0.348629,0.76745 -1.292474,1.39188 -2.678073,1.77177 -0.656437,0.17997 -2.332027,0.26286 -2.968781,0.14686 z"
       id="path19812" />
    <path
       style="fill:#8dd35f;fill-opacity:1;stroke:none;stroke-width:0.0935442;stroke-linecap:round;stroke-linejoin:round;stroke-miterlimit:4;stroke-dasharray:none;stroke-dashoffset:0;stroke-opacity:1;paint-order:markers fill stroke"
       d="m 52.678904,118.24734 c -0.716185,-0.11487 -1.521122,-0.36873 -2.10711,-0.66453 -1.197983,-0.60474 -1.583307,-1.22336 -1.584786,-2.54432 l -7.93e-4,-0.81606 0.397563,0.39511 c 0.867042,0.86167 2.480032,1.39681 4.232881,1.40432 1.745443,0.007 3.337316,-0.4814 4.255508,-1.30693 l 0.468482,-0.42121 v 0.8068 c 0,1.28768 -0.35142,1.85522 -1.513454,2.44421 -1.203249,0.60988 -2.91678,0.90011 -4.148172,0.70261 z"
       id="path19814" />
    <path
       style="fill:none;fill-opacity:1;stroke:#000000;stroke-width:0.264583;stroke-linecap:round;stroke-linejoin:round;stroke-miterlimit:4;stroke-dasharray:none;marker-end:url(#marker4433);paint-order:markers fill stroke"
       d="M 53.6725,90.563136 V 66.221469"
       id="path4295"
       sodipodi:nodetypes="cc" />
    <path
       style="fill:none;fill-opacity:1;stroke:#000000;stroke-width:0.264583;stroke-linecap:round;stroke-linejoin:round;stroke-miterlimit:4;stroke-dasharray:none;marker-end:url(#marker4423);paint-order:markers fill stroke"
       d="m 57.33868,127.6048 46.36443,26.72292"
       id="path4297"
       sodipodi:nodetypes="cc" />
    <path
       style="fill:none;fill-opacity:1;stroke:#000000;stroke-width:0.264583;stroke-linecap:round;stroke-linejoin:round;stroke-miterlimit:4;stroke-dasharray:none;marker-end:url(#marker4413);paint-order:markers fill stroke"
       d="M 50.00633,127.6048 3.72088,154.32772"
       id="path4369"
       sodipodi:nodetypes="cc" />
    <path
       style="fill:none;fill-opacity:1;stroke:#ff0000;stroke-width:1.32292;stroke-linecap:round;stroke-linejoin:round;stroke-miterlimit:4;stroke-dasharray:5.29167, 2.64583, 1.32292, 2.64583;stroke-dashoffset:0;paint-order:markers fill stroke"
       d="M 53.6725,90.563136 V 76.804804"
       id="path19861"
       sodipodi:nodetypes="cc" />
    <path
       style="fill:none;fill-opacity:1;stroke:#000000;stroke-width:0.264583;stroke-linecap:round;stroke-linejoin:round;stroke-miterlimit:4;stroke-dasharray:none;stroke-dashoffset:0;stroke-opacity:1;paint-order:markers fill stroke"
       d="m 59.17176,93.738137 7.33235,4.233334"
       id="path19865" />
    <path
       style="fill:none;fill-opacity:1;stroke:#000000;stroke-width:0.264583;stroke-linecap:round;stroke-linejoin:round;stroke-miterlimit:4;stroke-dasharray:0.264583, 1.05833;stroke-dashoffset:0;paint-order:markers fill stroke"
       d="m 59.17176,93.738137 -5.49926,-3.175"
       id="path3729-44"
       sodipodi:nodetypes="cc" />
    <path
       style="fill:none;fill-opacity:1;stroke:#000000;stroke-width:0.264583;stroke-linecap:round;stroke-linejoin:round;stroke-miterlimit:4;stroke-dasharray:none;stroke-dashoffset:0;stroke-opacity:1;paint-order:markers fill stroke"
       d="m 59.17176,164.64646 7.33235,4.23334"
       id="path19865-9" />
    <path
       style="fill:none;fill-opacity:1;stroke:#000000;stroke-width:0.264583;stroke-linecap:round;stroke-linejoin:round;stroke-miterlimit:4;stroke-dasharray:0.264583, 1.05833;stroke-dashoffset:0;paint-order:markers fill stroke"
       d="m 59.17176,164.64646 -2.74963,-1.58749"
       id="path3729-44-9"
       sodipodi:nodetypes="cc" />
    <path
       style="fill:none;fill-opacity:1;stroke:#000000;stroke-width:0.264583;stroke-linecap:round;stroke-linejoin:round;stroke-miterlimit:4;stroke-dasharray:none;stroke-dashoffset:0;marker-start:url(#marker3495-3);marker-end:url(#marker3589-0);paint-order:markers fill stroke"
       d="M 62.83794,166.76313 V 95.854804"
       id="path3491-0"
       sodipodi:nodetypes="cc" />
    <path
       style="fill:none;fill-opacity:1;stroke:#ffffff;stroke-width:0.529167;stroke-linecap:round;stroke-linejoin:round;stroke-miterlimit:4;stroke-dasharray:none;stroke-dashoffset:0;paint-order:markers fill stroke"
       d="m 62.83794,125.48814 v 10.58333"
       id="path3733-5"
       sodipodi:nodetypes="cc" />
    <g
       inkscape:label=""
       transform="translate(-32.378056,51.8627)"
       id="g1563">
      <g
         id="g7358">
        <g
           style="fill:#000000;fill-opacity:1"
           id="g1624">
          <use
             xlink:href="#symbol2579"
             x="91.925003"
             y="81.962997"
             id="use9470"
             width="100%"
             height="100%" />
        </g>
      </g>
    </g>
  </g>
</svg>
